<svg xmlns="http://www.w3.org/2000/svg" viewBox="0 0 84.61 96.42"><path d="M39.23,95.6l-36.18-21a6.1,6.1,0,0,1-3-6l5.2-42.4A6.09,6.09,0,0,1,7.9,21.83L38.67,1.05a6.1,6.1,0,0,1,6.81,0L76.69,21.82a6.11,6.11,0,0,1,2.67,4.35l5.2,42.38a6.1,6.1,0,0,1-3,6l-36.18,21A6.14,6.14,0,0,1,39.23,95.6ZM7.34,72.45,39.23,91a6.14,6.14,0,0,0,6.15,0L77.27,72.45a6.1,6.1,0,0,0,3-6L75.62,28.48a6.15,6.15,0,0,0-2.68-4.35L45.5,5.84a6.13,6.13,0,0,0-6.82,0l-27,18.26A6.11,6.11,0,0,0,9,28.45l-4.66,38A6.1,6.1,0,0,0,7.34,72.45Z"/></svg>