<svg xmlns="http://www.w3.org/2000/svg" viewBox="0 0 142.61 74.61"><path d="M108.93,31.2c8.7-11.21,19.77-17.4,33.68-20.6-4,7.76-5.44,16.11-11.59,22C120,43.22,108.83,53.76,97.56,64.13,76.18,83.81,44,74.56,36.09,46.55c-.17-.63-.48-1.22-.94-2.36-5.21,4.66-9.72,9.9-15.32,13.38s-12.15,5-18.77,7c3.81-7.87,5.28-16.68,12-22.94,11.25-10.4,22.32-21,33.41-31.55C65.74-8.23,97.71-.54,106.66,24.6,107.32,26.45,107.94,28.32,108.93,31.2ZM91.38,37.28a19.18,19.18,0,0,0-19.6-19.56A19,19,0,0,0,52.42,37c-.12,11.25,8.18,19.79,19.3,19.87A19.25,19.25,0,0,0,91.38,37.28Z"/><path d="M80.16,29.24V45.43H63.79V29.24Z"/><path d="M5.5,60.23l-4.5,4" fill="none" stroke="#000" stroke-linecap="round" stroke-linejoin="round" stroke-width="2"/></svg>