<svg xmlns="http://www.w3.org/2000/svg" 
    viewBox="0 0 118.77 102.98">
    <g id="Layer_2" data-name="Layer 2">
        <g id="Layer_1-2" data-name="Layer 1">
            <path id="gangrel" d="M97.08,57.07c4.72-2.06,3-6.06,4.07-9.44,3.49,2.48,3.76,6,3.93,9.8l2.39,1.17c4.51-1.73,4.74-6.17,6.52-10,2.92,3.53,2.43,7.13,1.91,10.87l2.87,2.18-5.69,9.53.59.49-4.13,2.77-4.07-3.28L98.2,75.19c-.29-1.61-.52-2.85-.8-4.36l-6,3.53c-.63-2.15-1.16-4-1.59-5.41-5.75-2.79-10.18,0-15.11,2C71,78.33,74.44,86,74.86,94.66l-5-3.42c-.47-2.67-.88-5-1.3-7.33-1.28,2.9-2.53,5.72-3.78,8.53l-.88-.25-.51-8.07-.7-.07q-2.27,6.26-4.52,12.52l-1.43-.29.48-8.59c-3.59,5.21-6.83,10.46-12.95,14.92,1.24-6.49,2.27-11.91,3.54-18.56L33.9,103l-1.47-.67c1.32-4.22,2.51-8.49,4-12.66,1.54-4.33,3.35-8.55,4.77-13-5,5.3-7.83,12.61-15.41,16.32.66-1.88,1.18-3.39,1.89-5.42-4.93,3.13-9.41,6-13.88,8.84l-.66-.89,11.6-10.91H19.67l7.84-11.29C21.73,79.53,15.23,84,5.57,83.88L17.91,73.1l-.41-.6L11,74.58l-.33-.78,9.23-6.37-.18-.77-5,.24L19,62.29,7,64.81,21.13,52.73l-14-3.6L31.27,37.82c-5-1-8.94-1.73-12.87-2.52-3.08-.63-6.14-1.4-9.23-2C6.33,32.82,3.46,32.49,0,32l7-5.39L3.46,25.34c4.82-2.09,8.06-5.61,13.2-4.74a7.71,7.71,0,0,0,3.42-.37c7-2.19,14.12-1.81,21.26-.79a33.06,33.06,0,0,0,4.67,0l.27-1-3.42-2c.08-.25.14-.75.26-.77,3.57-.45,7.15-1.11,10.73-1.21,7.12-.18,14.25-.05,21.38-.05,0-.36.08-.73.13-1.09l3.16,2c7.54-2.82,14.76-5.44,21.89-8.27,1.61-.64,2.94-2,4.34-3.13s2.65-2.32,4.54-4c1.61,3,3.25,5.31,4.11,7.87a115.77,115.77,0,0,1,3.38,12.86c.79,3.67-.48,6.81-3.16,9.39l-2.15-7.52-5.75,2.64c-.93,4.24-1.84,8.36-2.75,12.49h-1.09c-1-2.9-2-5.8-2.85-8L78.36,40c-.81,4.89-1.59,9.58-2.45,14.75C83.72,53.51,91.33,49.92,97.08,57.07ZM72.33,26.24,60.64,25.13l-.15,1.17,6.93,3.59Z"/>
        </g>
    </g>
</svg>