<?xml-stylesheet type="text/css" href="static/stylesheets/clan_logo.css" ?>  
<svg xmlns="http://www.w3.org/2000/svg" viewBox="0 0 65.76 135.68">
	<path d="M48.62,76.65l1.41,4c-.55,4.73-3.54,6.16-7.35,5.9-.47,1.77-.82,3.24-1.25,4.68-1,3.28-2.81,6.54-2.81,9.82,0,5.53-.66,11.28,2.59,16.47a7.48,7.48,0,0,1-.5,8.51c-2.16,3.12-4.39,6.19-6.88,9.69-2.53-3.55-4.91-6.83-7.23-10.16s-.94-6.64.3-10C30,107.29,30,99.18,25.68,91.23c-.71-1.29-.73-3-1.08-4.48-7-.83-8.31-2.74-6.67-10a39.82,39.82,0,0,1-16.4-24.6C-2.25,35.44.71,20.19,13.4,8.1,25.77-3.69,43.14-2.33,54.63,10.35,70.41,27.76,70.29,60.71,48.62,76.65ZM5.93,38.58C19.78,39.71,30.45,33,41.71,28.08L22.48,7.93C11.16,15,6.5,25.34,5.93,38.58ZM22.55,72.47c7.25,4.25,14.19,4.41,21.06.72,3.64-9.69,4.08-18.46,1.33-28.13-3.57,1.88-7.86,2.94-10.31,5.66C29.08,56.88,25.65,64.49,22.55,72.47ZM7.91,53.32c2.44,7.42,6.07,13.3,12.34,17.73,3.26-6.24,6.38-12.19,9.65-18.44L18.13,42.19l-5,5.44C11.46,49.45,9.79,51.26,7.91,53.32ZM59.42,32c-9.53,1.82-13.35,12-9.88,26,1.5,1.54,3.1,3.2,5.09,5.27C60.36,53.06,62.21,42.91,59.42,32Zm-.52-3c-3.55-10.2-8.85-18.09-19.16-22C38,19.83,41.82,26.44,53.6,31.09ZM26.13,42.55A14.65,14.65,0,0,0,47.24,32.9C38.62,31.13,29.36,35.36,26.13,42.55Zm.27-36.3c-.21.52-.43,1-.64,1.58L38.46,22c-.81-5.79-1.5-10.66-2.32-16.49ZM16.22,40.86,16,40.19,5.91,41.56c.3,3,.56,5.72.71,7.35ZM49,60.72c-.68,3.93-1.16,6.73-1.85,10.68l6.33-5.94Z" />
	<path d="M47.55,73.57c9-5.94,13.15-14.64,15.09-25,1.68-9,0-17.31-3.14-25.51A34.11,34.11,0,0,0,44,5.6C35.67.82,23.37,2.46,16,9.07c-7.87,7.1-11.69,16.18-13,26.5" fill="none" stroke="#000" stroke-linecap="round" stroke-linejoin="round" stroke-width="2" />
	<path d="M3.3,45.07l.75,5.5" fill="none" stroke="#000" stroke-linecap="round" stroke-linejoin="round" stroke-width="2" />
	<path d="M6.3,57.07l5.25,10" fill="none" stroke="#000" stroke-linecap="round" stroke-linejoin="round" stroke-width="2" />
	<path d="M22.05,41.07c.85,4.74,5.48,4.88,8.7,7.14.23,1.17.5,2.52.72,3.67L21.05,72.07" fill="none" stroke="#000" stroke-linecap="round" stroke-linejoin="round" stroke-width="2" />
	<path d="M3.55,40.07c3.33-.34,6.66-.75,10-1a8.53,8.53,0,0,1,4,.52c3.15,1.48,5.26.46,8.14-1.38,5.43-3.47,11.5-6,17.42-8.61,1.82-.82,4.94.87,7.66,3.38-2.42,7.79-7.9,12-15.69,13.58a27.1,27.1,0,0,0-4,1.47" fill="none" stroke="#000" stroke-linecap="round" stroke-linejoin="round" stroke-width="2" />
	<path d="M39.05,4.57c0,4.66-.58,9.43.18,14,.6,3.65,2.82,7,4.32,10.53" fill="none" stroke="#000" stroke-linecap="round" stroke-linejoin="round" stroke-width="2" />
	<path d="M24.05,6.07c4,6.74,8.57,12.93,15.5,17" fill="none" stroke="#000" stroke-linecap="round" stroke-linejoin="round" stroke-width="2" />
	<path d="M46.05,43.07a25.62,25.62,0,0,1,1,3.5c.41,3.16.4,6.4,1.09,9.48,1,4.28-1.5,8-1.56,12,0,1.83,0,3.66,0,5.5" fill="none" stroke="#000" stroke-linecap="round" stroke-linejoin="round" stroke-width="2" />
	<path d="M18.05,41.07q-5.5,5.49-11,11" fill="none" stroke="#000" stroke-linecap="round" stroke-linejoin="round" stroke-width="2" />
	<path d="M61.05,30.07l-10,3" fill="none" stroke="#000" stroke-linecap="round" stroke-linejoin="round" stroke-width="2" />
</svg>
