<svg xmlns="http://www.w3.org/2000/svg" viewBox="0 0 144 124">
	<path d="M64.53,47.84h4.72c.68,9.92.19,19.71,0,30.26l-7.1-2.31c-4.4,8-5.51,17.61-11.69,25-5.81,6.93-10.82,14.54-16.18,21.85l-.88-.5,7.93-19.25c-8.53-6.76-14.92-15.3-18-26-.61-2.14-.83-4.39-1.37-7.3l7.43.84c2.53,9.5,6.75,18,14.08,24.15,2.8-3.66,5.34-7.21,8.13-10.55s5.78-6.41,8.59-9.5l-5-10.34c-3.55.68-7.32,1.22-11,2.12A40.74,40.74,0,0,1,28,66.8c-8.79-1.38-17.66-2.26-26.49-3.35l0-1.08L21.05,59.7c1.85-14.63,7.38-27.36,20-36.68l2.86,6.62c-7.61,7.83-13.43,16.7-14.27,27.61l25.14,4,7.52-13c-14.5-11.77-19-30.1-26.58-46.73l.91-.73c2,2.61,3.91,5.22,5.88,7.83L48.81,17,64,12.47c.74,2.95,1.28,5.08,1.82,7.23L55,23.24Z" />
	<path d="M107.73,2.36q-3.86,9.33-7.72,18.7c10.83,9.08,19.09,19.29,19.9,34.33h-6.62c-2.62-10.52-7.13-19.9-15.75-25.95L81.38,49.67,88,61.3c8.45-.09,17.33-4.65,27-2.74,9,1.78,18.22,2.51,27.34,3.7l-.09,1L121.6,66c-1.86,13.46-7,25.27-18,34.85L100.26,94c7.2-7.38,11.71-15.9,12.92-25.58L87.57,64c-1.67,3.43-3.32,6.81-5.11,10.51a71.24,71.24,0,0,0,5,5.8c6.28,6,10.26,13.29,13.25,21.34,2.57,6.93,5.67,13.67,8.53,20.49l-.84.48L96.63,106.56c-5.89,1.84-11.1,5.68-17.91,5.07l-1.76-6,13.81-5.22C87.19,91.89,83.89,84,80.47,75.85L74,77.93V47.63l5.83.94c3-18.91,16.36-31.93,26.79-46.74Z" />
	<path d="M71.89,106.18v6.68a45.36,45.36,0,0,1-22-5.07l4-5.68Z" />
	<path d="M71.65,19.16V12.68c6.82-.79,12.87,1.24,19.62,3.84l-4,6.2Z" />
	<path d="M81,62.5H98" fill="none" stroke="#000" stroke-linecap="round" stroke-linejoin="round" stroke-width="2" />
	<path d="M36,1,46,18.5" fill="none" stroke="#000" stroke-linecap="round" stroke-linejoin="round" stroke-width="2" />
	<path d="M59,40.25,64.5,50.5" fill="none" stroke="#000" stroke-linecap="round" stroke-linejoin="round" stroke-width="2" />
	<path d="M81,74.5l6,10" fill="none" stroke="#000" stroke-linecap="round" stroke-linejoin="round" stroke-width="2" />
	<path d="M98.75,104.5,109,123" fill="none" stroke="#000" stroke-linecap="round" stroke-linejoin="round" stroke-width="2" />
	<path d="M107,2,98,18.5" fill="none" stroke="#000" stroke-linecap="round" stroke-linejoin="round" stroke-width="2" />
	<path d="M85,40.25,79.5,50.5" fill="none" stroke="#000" stroke-linecap="round" stroke-linejoin="round" stroke-width="2" />
	<path d="M62,63l-17-.5" fill="none" stroke="#000" stroke-linecap="round" stroke-linejoin="round" stroke-width="2" />
	<path d="M21.5,62.75,1,63" fill="none" stroke="#000" stroke-linecap="round" stroke-linejoin="round" stroke-width="2" />
	<path d="M143,63l-20-.5" fill="none" stroke="#000" stroke-linecap="round" stroke-linejoin="round" stroke-width="2" />
	<path d="M61.5,74.5l-5.5,9" fill="none" stroke="#000" stroke-linecap="round" stroke-linejoin="round" stroke-width="2" />
	<path d="M44,105,34,123" fill="none" stroke="#000" stroke-linecap="round" stroke-linejoin="round" stroke-width="2" />
</svg>
