<svg xmlns="http://www.w3.org/2000/svg" viewBox="0 0 74.48 114.16">
	<path d="M35.86,114.16A54.33,54.33,0,0,1,16.41,95.1c-2.18-3.54-3.9-7.35-6.06-10.9-8.51-14-9.11-29.28-7.95-44.9.3-4,1.05-7.92,1.49-11.88.74-6.57-.5-12.93-2.24-19.21C1.08,6.14.49,4.08,0,2.35,1.35-.42,3.19-.27,5.28.44,26.45,7.71,47.71,7,69.06,1.19c1.42-.39,3-.05,5.42-.05C73.66,4.46,73.22,7,72.41,9.46a39.66,39.66,0,0,0-.89,23.12c3,11.1,1.55,22.15.37,33.23-.65,6.11-1.56,12.19-2.47,18.27a24.38,24.38,0,0,1-9.65,16.35C52.53,105.89,46,112.68,35.86,114.16Zm17-12c7.3-5,9.8-11.14,8.71-18.64-1.42-9.81-.3-18.77,6.31-26.75a14.18,14.18,0,0,0,3-8.17c.21-10-2.06-19.38-7.86-27.85C61.38,18.34,60.81,15,60.24,12c-.31-1.62.45-3.43.78-5.48C44.91,9.58,29.27,10,13.13,6.5c2.25,7.08-.54,12.06-3.79,17.37C3.4,33.6,4,44.46,5.69,55.27a2.22,2.22,0,0,0,.47.88C12.6,65.07,15,75.35,16.45,86c.72,5.23,2.82,8.53,5.21,10.37-.22-10.9-.68-22.5-.6-34.11,0-5.62,2.3-10.4,8.81-12.08.85-3.33,1.68-6.62,2.52-9.93L16.58,44c-.89,4.55,4.31,8.54.27,13.49l-5.31-.69c1.19-4.65,2.21-8.63,3.39-13.2L10.1,45.8c-.53-.63-.88-1-1.16-1.39a7.21,7.21,0,0,1-.71-1.31c-2.6-6.71,0-12.19,3.83-17.61C17.45,17.91,26.41,17.27,34.48,13c-1.23,14.17,2.19,27.92-3.3,40.89l-3.94.44,10.07,6.15L47.22,54l-5-.89c-3.35-5.85-4.72-33.87-2-39.49,3.36,1.41,6.67,2.92,10.06,4.23,10.36,4,15.4,12.19,17.65,22.46.65,3,0,5.91-3,8.92L41.22,40.12c.06,3.89,0,7.75,3.4,9.72,6.48,3.77,8.72,9.87,9.8,16.55A87.2,87.2,0,0,1,52.88,102.2Zm-25.11,1.45,1.33-.56a103.6,103.6,0,0,1,.07-10.43c.44-4.43,2.77-6.61,6.52-6.86,4.19-.29,7.61,1.88,8.57,6a63.78,63.78,0,0,1,1,8.89c.14,1.7.16,3.42.26,5.6,4.12-3.32,5.85-5.21,6.34-9.43A162.26,162.26,0,0,0,53,76.55a65.63,65.63,0,0,0-2-13.67c-.41-1.78-2.15-3.24-3.67-5.38a74.72,74.72,0,0,1-5.8,5.37,38.92,38.92,0,0,1-5,2.8c-4.85-2.83-6.23-8.9-12.06-8.21a8.4,8.4,0,0,0-.88,1.75c-2.29,13.65-.91,27.14,1.93,40.53C25.72,101.15,27,102.35,27.77,103.65Zm13.43,4.89c2.48-3.8,2.22-7.84,1.57-11.71-.94-5.66-6-7.45-11.36-4.07v14l5.51,3.5Zm.11-87.17c5.48,2.76,10.78,4.77,15.34,7.88,4.91,3.35,7.13,9,9.05,15.41.88-13.15-7.48-22.47-24.18-27.75C41.45,18.41,41.38,19.85,41.31,21.37Zm-9.48,1A31.59,31.59,0,0,0,32.11,19a14.61,14.61,0,0,0-.41-2.18C14.62,22.61,8.76,28.7,9.61,40.56,12.42,28.17,21.75,24.76,31.83,22.38ZM65.16,90.06c3.37-9.13,2.66-18.83,4-28.77C62.77,67.65,61.88,76.48,65.16,90.06ZM7.43,22.33c5.45-6.41,6-10.53,2.2-16.74L4.11,3.83C5.26,10.26,6.3,16.06,7.43,22.33ZM64.71,5.94c-3.92,6.76-3,11.8,2.36,16.59,1-5.79,2-11.78,3-18.19ZM5.79,62.24C6,70,8.76,77,14.08,83.92,12.84,75.46,10.61,68.41,5.79,62.24ZM59,45.05l.64-1.28-17.78-9-.69,1.36C46.06,41,52.84,42.42,59,45.05ZM14,40.58c.14.34.29.68.44,1,16.19-2.54,16.19-2.54,17-6.42Z" />
	<path d="M48.7,89.9c-5.94-8.42-15.81-10.79-22.42-2.05a19.34,19.34,0,0,1,.92-16.39C30.06,66,39.1,65,44.3,69.18,49.84,73.66,51.88,82.72,48.7,89.9Z" />
	<path d="M14.12,86.47c2-5-.31-9.65-1.61-14.22A38.66,38.66,0,0,0,5.27,58.6c-3.12-3.87-2.43-9.15-2.06-13.87.48-6.2,1.93-12.32,2.3-18.52a65.76,65.76,0,0,0-1-13.48C4,9.36,2.79,6.1,1.61,1.85c8.44,1.65,16,4.75,24,4.85,7.67.1,15.38.51,23-.12,8-.66,16-2.4,24.53-3.76a52.51,52.51,0,0,0-4.37,23.39c.2,4.54,2.28,9,2.74,13.52a104.15,104.15,0,0,1,0,15,5.79,5.79,0,0,1-1.94,3.46c-7.79,7.25-8.27,16.39-7,26,.41,3,.68,6,1,9" fill="none" stroke="#000" stroke-linecap="round" stroke-linejoin="round" stroke-width="2" />
	<path d="M40.62,38.72c-1.17,6-.2,10.51,5.79,14.33,3.35,2.14,5.84,7.48,6.47,11.71,1.85,12.33,3.17,24.85-1.72,37a7.13,7.13,0,0,0,0,2.49" fill="none" stroke="#000" stroke-linecap="round" stroke-linejoin="round" stroke-width="2" />
	<path d="M32.62,38.72c1.64,3.69-.32,7.05-1.06,10.48-.24,1.1-1.09,2.67-2,2.92-7.16,2-7.92,8-7.83,13.6.16,10.34,1.21,20.66,1.82,31a20.14,20.14,0,0,1-.47,3.75" fill="none" stroke="#000" stroke-linecap="round" stroke-linejoin="round" stroke-width="2" />
	<path d="M62.62,45.22c-.16-.83-.33-1.67-.5-2.5" fill="none" stroke="#000" stroke-linecap="round" stroke-linejoin="round" stroke-width="2" />
	<path d="M41.87,25.22c-2.49-2.89-1.61-6.23-1.75-9.7,12,2.59,21.13,8.1,25.52,19.69,1.46,3.87,2.47,7.68.27,11.07-9.52.24-17.29-4.22-25.88-8.68.3-1.32.7-3.1,1.09-4.88" fill="none" stroke="#000" stroke-linecap="round" stroke-linejoin="round" stroke-width="2" />
	<path d="M31.12,25.72c3-2.95,1.67-6.57,2.17-10.73-7.87,3.21-15.63,4.39-20.73,11.18C8.45,31.64,7,36.86,9.32,42.72c8,.06,16-.23,23.88-5.17-.28-1.27-.68-3-1.08-4.83" fill="none" stroke="#000" stroke-linecap="round" stroke-linejoin="round" stroke-width="2" />
	<path d="M70.12,58.72c-.16,5.17-.19,10.34-.54,15.5a103.53,103.53,0,0,1-1.52,11.49,12.26,12.26,0,0,1-2,4.49c-7.41,10.82-17.57,18-29.84,22.41-8.51-6.27-16.06-12.91-20.66-22.37-1.76-3.62-4.25-6.89-5.9-10.55A119.48,119.48,0,0,1,4.25,65.18c-.48-1.59.54-3.63.87-5.46" fill="none" stroke="#000" stroke-linecap="round" stroke-linejoin="round" stroke-width="2" />
	<path d="M48.62,89.72l-1.5-6" fill="none" stroke="#000" stroke-linecap="round" stroke-linejoin="round" stroke-width="2" />
	<path d="M27.62,82.22c-.33,1.83-.66,3.67-1,5.5" fill="none" stroke="#000" stroke-linecap="round" stroke-linejoin="round" stroke-width="2" />
	<path d="M44.62,108.22c-.16-3.67-.34-7.33-.49-11s-1.71-6.73-5-8.46c-4.19-2.2-8.65.62-9,5.46-.3,4.08-.66,8.17-1,12.25" fill="none" stroke="#000" stroke-linecap="round" stroke-linejoin="round" stroke-width="2" />
	<path d="M26.12,55.72,37,62.82l11.1-6.6" fill="none" stroke="#000" stroke-linecap="round" stroke-linejoin="round" stroke-width="2" />
	<path d="M63.12,5.72c-4.4,8.18-.93,14.4,5,20" fill="none" stroke="#000" stroke-linecap="round" stroke-linejoin="round" stroke-width="2" />
	<path d="M12.12,5.72c2.41,7.56.45,13.86-5.5,19" fill="none" stroke="#000" stroke-linecap="round" stroke-linejoin="round" stroke-width="2" />
	<path d="M15.62,43.22q-.24,5.25-.5,10.5" fill="none" stroke="#000" stroke-linecap="round" stroke-linejoin="round" stroke-width="2" />
</svg>
