<svg xmlns="http://www.w3.org/2000/svg" viewBox="0 0 108.12 113.89">
	<path d="M58.76,8.34c2.24,0,4.36-.36,6.33.06,21.58,4.52,38.33,20,42.38,44,4.79,28.37-17,60.76-54.43,61.51C27.73,114.38,4.55,97,.53,67.74-2.18,48,5.56,33.83,22.41,24a14.65,14.65,0,0,0,1.22-.84c.12-.09.17-.26.37-.57l-4.91-3.2,3.31-2.19c-.56-1.17-1.08-2.28-1.76-3.71l10,.52L28.29,8.23l5,1.12c.13-1,.25-2,.41-3.24,9.9,6.83,16.16-.29,23.17-6.11.24,1.68.38,2.74.56,4l3.53-2.13Zm26.76,37.2c.2,4.27,1,9.59.58,14.82-.38,5.08-1.93,10.07-3.13,15.93a30.7,30.7,0,0,0-3.68,3.14C70.88,88.71,60.57,93,48,91.67c-.13,0-.29.25-.49.43l3.64.86,5.66,6.89C42.32,104.27,25.17,91.19,23.29,74a7.79,7.79,0,0,1,1.54,1.41c4.15,7.23,10.68,7.42,17.72,3.88A41.45,41.45,0,0,1,50.87,76c1.76-.43,3.78.2,6.55.42l-5,4.52c-.31,2.25-.55,4-.79,5.78L46.82,87a27.75,27.75,0,0,0,6.48.39c8.14-.38,15.3-3.12,21-9.14,7-7.52,8.15-18.94,2.64-26.39l2.59-1C76,36,62.58,27.52,50.75,26.78c-4.65,2.77-9.87,4.95-11.31,11.85L33.66,29c2.38-.62,5.8,2.33,6.44-2.17C24.16,26.51,7.58,42.88,8.42,57.9l2.6.31C6.1,70.12,17.73,90.63,33.18,97.82c20.58,9.59,45.31,1.58,55.59-18,10.41-19.82,1.89-43-20.65-56-.75-1.4-1.55-2.91-2.69-5.06.16,2.36.26,3.9.33,4.89C69.7,27,73.69,29.8,76.89,33.34S82.34,41,85.52,45.54Z" />
	<path d="M40.38,90.53c4.5-.33,9-.82,13.51-1,11-.36,20-5.25,25.69-14.22,3.17-5,5.27-11.66,3.3-18.31" fill="none" stroke="#000" stroke-linecap="round" stroke-linejoin="round" stroke-width="2" />
	<path d="M23.38,74q2.76,4.5,5.5,9" fill="none" stroke="#000" stroke-linecap="round" stroke-linejoin="round" stroke-width="2" />
	<path d="M50.88,97.78l6.5,2.25" fill="none" stroke="#000" stroke-linecap="round" stroke-linejoin="round" stroke-width="2" />
	<path d="M43.38,28c-2.29,2.95-6.26,5.23-4,10" fill="none" stroke="#000" stroke-linecap="round" stroke-linejoin="round" stroke-width="2" />
	<path d="M19.38,19h5.5" fill="none" stroke="#000" stroke-linecap="round" stroke-linejoin="round" stroke-width="2" />
	<path d="M60.38,2c-1.52,1.66-1.64,4.88-5,4.5" fill="none" stroke="#000" stroke-linecap="round" stroke-linejoin="round" stroke-width="2" />
	<path d="M81.88,53.53,76.38,52" fill="none" stroke="#000" stroke-linecap="round" stroke-linejoin="round" stroke-width="2" />
	<path d="M29.38,8l4.5,4.5" fill="none" stroke="#000" stroke-linecap="round" stroke-linejoin="round" stroke-width="2" />
</svg>
