<svg xmlns="http://www.w3.org/2000/svg" viewBox="0 0 2299.52 796.8"><defs><style>.cls-1{fill:#4d4d4d;}</style></defs><g id="Layer_2" data-name="Layer 2"><g id="Layer_3" data-name="Layer 3"><path class="cls-1" d="M2187.42,460.51V358.25h-7.37V131.6h-7.67V358.25H2134V230.3h-33.24V197.4h-5.11V131.6h-40.91V0h-5.11V131.6h-58.8V158h-.61V131.28H1968V84.51h-14.82V33.2h-18.52V84.51h-51.85v46.77h-25.93V158h-37V378.46h-29.63v-167h-81.49v41.33h-31.07V87.15H1649V252.78h-5.59V6.14H1637V252.78h-34.82V90.59h-12.66V252.78h-9.5V196.16h-41.15V373.5h-7.7v-5.37h-30.29V99h-12.66V35.7h-69.65V99H1387v173c-11.79-2-29.45-3.58-50.66-4.57V229h-95.08v38.26c-5.66.24-11.09.51-16.25.83V106.84h-28.1V74.7h-103v32.14h-28.11V224.05h-2.12V181.58h-6.86v42.47h-18v88.32h-11.14v48.68h-14V336.51h-2.8V243.28H984.75V212.67H959V173h-6.86v39.67H929.9v83.5h-8.75v82.41h-9.81V296.17h-2V203h-8.57v-46.1H893.9V203H863.05v93.15h-8.57V141.92H844.19V110.83h-3.43v31.09H821.91v8.57h-5.14v19.3h5.14v74H804.77v-30H784.2V291h-3.1V194.79h-35V147.2h-28v47.59h-126V291h-35V131.7h-42V99.6h-14v32.1h-77v8.86h-21v19.92h21v76.37h-70v-31h-84V291H222.75v66.1H177V291H158.08V188.15H121.19V460.51H0V796.8H2299.52V460.51Z"/></g></g></svg>