<svg xmlns="http://www.w3.org/2000/svg" viewBox="0 0 1920.06 814.11"><defs><style>.cls-1{fill:#333;}.cls-2{fill:#4d4d4d;}.cls-3{fill:#666;}</style></defs><g id="Layer_2" data-name="Layer 2"><g id="Layer_2-2" data-name="Layer 2"><path class="cls-1" d="M1908.87,269.46V251.57h-18.63v17.89H1882V402.64h-14.49V354.93h-16.56v47.71h-16.56V207.84H1824V107.34a20.69,20.69,0,0,0,10.35-17.78c0-11.53-9.73-20.87-21.73-20.87s-21.73,9.34-21.73,20.87a21.05,21.05,0,0,0,16.55,20.27v98H1795v194.8h-26.91V221.75h-24.84V331.08h-35.19V287.35h-20.7V263.49h-22.23V191.38h-43.23v72.11h-11.12v23.86H1586V402.64h-18.63V160.13h-20.69V142.24h-22.77V106.46h-9.59V0l-38.83,28.92v6h-3.33v71.56H1439v35.78h-4.14v17.89H1408V229.7h-31V106.46h-6.21V229.7h-6v230h-20.3v-230h-4.78V130.31h-45.53V229.7h-16.56V98.51h-20.7V82.6h-14.49V54.78h-29V5.08h-10.34v49.7h-8.28V82.6h-12.42V98.51h-8.28V229.7h-26.91v83.49H1138V396.3h-10.15V313.19h-5.51V74.65h-6.21v79.52h-22.77v51.68h-6.2V228.2a19,19,0,0,0-10.35,30.25v54.74h-15v66.86h-42.3V313.19h-11V118.38h-20.7V88.57L942.26,43.5v74.88H934V247.59H909.14V164.1H882.23v83.49H876V114.41h-8.28V247.59H845V74.65h-4.14V247.59h-4.05V414.17H804.63V247.59H795.3V76.64h-4c-4.21-3.21-15-5.82-29.12-7.1V32.91H720.79V69.74c-13.07,1.34-23,3.85-27.06,6.9H677.32v89.45h-41.4V350.73h-5.58v118.7H616.8V350.73h-14V197.9H578v55.65h-20.7V116.4h6.21V80.62h-6.21V64.71H534.5V7.07h-4.14V64.71H517.94v286H507.59V178H470.34V92.54h-8.28V178H451.71V350.73h-2.43V503.55H437.43V350.73H426.87V195.91H400V122.36h-8.28v73.55h-31v56.76H329.13V425.55h-3.38v45.5H308.83V380.77H295.38V217H273.7V138.26h-8.28V217H252.68V380.77H224V72.67H211.61v308.1h-4.14V134.29H188.84V120.37h-68.3v13.92H101.91V380.77H75V587.5H2.81V814.11H1917.38V269.46Z"/></g><g id="Layer_8" data-name="Layer 8"><path class="cls-2" d="M1917.38,506.92h-15.61V384.29h-32.19V352.76h-4.95V289.69H1825V163.56h-5V289.69h-57V315h-.58V289.38H1741V244.56h-14.34V195.38h-17.94v49.18h-50.21v44.82h-25.11V315h-35.87v211.3h-28.69V366.22h-78.91v39.61h-30.09V247.09H1432V405.83h-5.42V169.45h-6.13V405.83h-33.72V250.39H1374.5V405.83h-9.19V351.56h-39.86v170H1318v-5.16h-29.33V258.48H1276.4v-60.7H1209v60.7H1178.3V424.3c-11.41-1.9-28.51-3.43-49.06-4.38V383.05h-92.07v36.67q-8.22.34-15.73.79V266H994.22v-30.8H894.44V266H867.22V378.3h-2.06V337.59h-6.64V378.3H841.13v84.64H830.35V509.6H816.78V486.08h-2.71V396.73H788.8V367.39H763.9v-38h-6.63v38H735.69v80h-8.47v79h-9.5v-79h-2V358.14h-8.3V314h-6.64v44.18H671v89.27h-8.3V299.58h-10v-29.8h-3.32v29.8H631.11v8.22h-5v18.49h5v70.89h-16.6V368.42H594.59v74h-3V350.25h-33.9V304.64H530.58v45.61h-122v92.18h-33.9V289.79H334V259H320.43v30.77H245.86v8.48H225.53v19.1h20.33v73.2H178.07V360.86H96.73v81.57H50.89v63.34H6.55V442.43H5.8V805.54H1917.38Z"/></g><g id="Layer_5" data-name="Layer 5"><path class="cls-3" d="M1848.08,426.94v15.9h-29.82v91.44h-17.89V474.64H1780.5v59.64h-11.93v65.6H1703V568.07h-11.92v31.81h-23.86V707.36h-79.51V655.53H1550V615h-49.6V567.23h-16.63v33h-13.85V518.84H1474V497.59h-4.15v-9.45H1457V473.56h-2.32v-9.45h-2.77v9.45h-7.46l-30.35-56-31,56h-.54v1l-2.6,4.7,2.6-.16v135l-82.06-98.26L1245.67,615h-3.48V575.12h-12.91V515.06h-8.4v60.06h-22V615h-9.15V575.12h-12.91V515.06h-8.4v60.06h-22V615h-6.87V575.12h-12.92V515.06h-8.39v60.06h-22V615h-48.5v92.39h-41.16v-218H976.85v-55H947.92V372.55h-9.64v61.76h-53v24.27H870.79v54.59h14.46V722.45h-48.2V637.53H779.2v133.4h-26V646.82L720,648.18V617.32l-28.66-47v76.46l-85-120.94V658.94H583.1v27.29h23.19V790.82H529V748.38H500.36V703.24H479V590.49h-16.4V703.24H448.68v45.14H436.23v49.5h-50.6v-99.8c9.78-6.72,15.67-15.25,15.67-24.56,0-18.61-23.46-34.15-54.85-38.11V589.12H322.94v-107h-86.2V317.39h-23.5v35.24H165.31V295.22H66.89V186.54H0V812.92H1920.06v-386Z"/></g></g></svg>