<svg xmlns="http://www.w3.org/2000/svg" viewBox="0 0 539.88 468.52"><defs><style>.cls-1{fill:#333;}</style></defs><g id="Layer_2" data-name="Layer 2"><g id="Layer_5" data-name="Layer 5"><polygon class="cls-1" points="502.17 237.93 502.17 197.37 452.57 197.37 452.57 149.63 435.94 149.63 435.94 182.68 422.09 182.68 422.09 101.23 426.25 101.23 426.25 79.99 422.09 79.99 422.09 70.54 409.18 70.54 409.18 55.96 406.85 55.96 406.85 46.51 404.08 46.51 404.08 55.96 396.62 55.96 366.27 0 335.32 55.96 334.78 55.96 334.78 56.93 332.18 61.63 334.78 61.47 334.78 196.46 252.72 98.2 197.87 197.37 194.4 197.37 194.4 157.52 181.48 157.52 181.48 97.46 173.09 97.46 173.09 157.52 151.11 157.52 151.11 197.37 141.95 197.37 141.95 157.52 129.04 157.52 129.04 97.46 120.65 97.46 120.65 157.52 98.67 157.52 98.67 197.37 91.79 197.37 91.79 157.52 78.88 157.52 78.88 97.46 70.48 97.46 70.48 157.52 48.51 157.52 48.51 197.37 0 197.37 0 450.44 436.52 450.44 436.52 468.52 539.88 468.52 539.88 237.93 502.17 237.93"/></g></g></svg>