<svg xmlns="http://www.w3.org/2000/svg" viewBox="0 0 2055.34 842.42"><defs><style>.cls-1{fill:#666;}</style></defs><g id="Layer_2" data-name="Layer 2"><g id="Layer_2-2" data-name="Layer 2"><path class="cls-1" d="M2018.08,414V275.29h-43.47V256.66H1956v18.63h-8.28V414h-14.49V364.29h-16.56V414H1900.1V211.12h-10.35V106.48a21.73,21.73,0,1,0-16.56,2.6v102h-12.42V414h-26.9V225.61H1809V339.45h-35.19V293.92h-20.7V269.08h-22.23V194h-43.23v75.09h-11.12v24.84h-24.84V414h-18.63V161.45h-20.7V142.82h-22.76V105.56H1542V31.05h-4.14v74.51h-33.12v37.26h-4.14v18.63h-26.9v72.44h-31V105.56h-6.21V233.89h-6V473.36h-20.3V233.89h-4.78V130.4h-45.53V233.89h-16.56V97.28h-20.7V80.72h-14.49v-29h-29V0H1268.8V51.75h-8.28v29h-12.41V97.28h-8.28V233.89h-26.91v86.93h-9.18v86.54h-10.15V320.82h-5.51V72.44h-6.21v82.8H1159.1v53.81h-6.21v23.27c-8.29,2-14.49,9.81-14.49,19.16a20.3,20.3,0,0,0,4.14,12.35v57h-15v69.62h-42.3V320.82h-11V118h-20.7v-31H1008V118h-8.28V252.52H974.89V165.59H948v86.93h-6.21V113.84h-8.28V252.52H910.72V72.44h-4.14V252.52h-4.05V426H870.38V252.52h-9.33v-178h-4c-4.21-3.34-15-6.06-29.12-7.39V29h-41.4V67.33c-13.06,1.4-23,4-27,7.18H743.07v93.15h-41.4V359.92h-5.58V483.51H682.55V359.92h-14V200.77H643.72v58H623V115.91h6.21V78.65H623V62.09H600.25v-60h-4.14v60H583.69V359.92H573.34V180.07H536.08v-89h-8.27v89H517.46V359.92H515V519H503.18V359.92H492.62V198.7H465.71V122.12h-8.28V198.7H426.38v59.11h-31.5v180H391.5V485.2H374.57v-94H361.13V220.68H339.45v-82h-8.28v82H318.43V391.2H289.78V70.37H277.36V391.2h-4.14V134.54H254.59V120.05H186.28v14.49H167.66V391.2H140.75V606.46H0v236H2009.8v-120h45.54V414Z"/></g></g></svg>