<svg xmlns="http://www.w3.org/2000/svg" viewBox="0 0 418.79 619.55"><g id="Layer_2" data-name="Layer 2"><g id="Layer_6" data-name="Layer 6"><path d="M98.35,619.55v-112c-3.19-2-8.24-3.48-10.26-6.8-8.36-13.73-20-23.21-34-30.62a32.08,32.08,0,0,1-11.39-10.19c-7.83-11.87-16.52-22.44-29.88-28.51-5.94-2.7-8.82-7.87-10-14.41a194.4,194.4,0,0,1-1-59.27C7.87,311.12,20.56,266.16,36,221.93c5.54-15.87,13.58-29.85,30.22-37.24,10.26-4.55,19.7-10.92,29.8-15.88,8.3-4.07,17.12-7.07,25.51-11a11.35,11.35,0,0,0,5.38-5.56c4.08-10.51,7.47-21.28,11.52-31.8,2.07-5.38,4.34-11,7.81-15.44,2.13-2.75,2.34-4,1.58-7.33a169.85,169.85,0,0,1-3.32-24.55c-.13-1.69,1.92-4.11,3.61-5.27,5.42-3.75,6.75-7.8,2-12.4-4.94-4.83-3.25-8.34-.16-12.93,5.13-7.65,10.4-15.32,14.45-23.55,3.38-6.89,7.77-11.47,15.36-12.76C192.74,4.05,205.59,1,218.6.05c6-.44,13,2,18.28,5.26,9.17,5.58,17.33,12.8,25.94,19.29,4.75,3.58,7.71,7.81,7.75,14.21.06,10.34,1,20.68,1.18,31,0,2-1.64,4-2.48,6-2.14,5.08-5.87,10.12-6,15.27-.3,9.39,1.35,18.87,2.55,28.27a16.7,16.7,0,0,0,3.08,7c1.77,2.5,4.5,4.32,6.24,6.84,5.39,7.78,10.34,15.86,15.85,23.56,1.35,1.89,4,3.11,6.33,4,11.15,4.22,22.43,8.11,33.54,12.42,1.67.64,3,2.72,4,4.41,2.46,4.06,5.24,8.07,6.83,12.48a31.87,31.87,0,0,0,16.12,18.18c8.81,4.6,13.61,12.26,15.34,22,.76,4.22,1.32,8.56,2.76,12.56a20.93,20.93,0,0,0,5.31,8.14c7.82,7.08,16,13.71,24,20.62a19.2,19.2,0,0,1,3.24,4.29c13,20.36,12.74,41.76,4.92,63.73-2.41,6.79-7.19,11.3-13.67,14.2-17.71,7.91-46.63-1.86-56.52-18.6-2.74-4.63-7.19-8.26-10.86-12.34l-1.93,1.45c.43,2.16.75,4.35,1.29,6.49,7.12,28,14.09,56.07,21.45,84,11,41.75,20.09,83.85,27,126.49,4.24,26.27,10.5,52.21,15.85,78.29ZM77.27,371l-1.82-.29c-2.29,5.58-4.57,11.16-6.72,16.41l13.86,10.24C80.7,388,79,379.48,77.27,371Z"/></g></g></svg>