<svg xmlns="http://www.w3.org/2000/svg" viewBox="0 0 140.97 113.98"><path d="M103.93,88.86,76.16,114V89.27H65.24v23.52l-1.25.55L37.41,88.92V40.66h7.06l2.31,11.27,18.36-1.76V75.74H75.68l.23-1.44-7.74-1.24V45.44l1.88-2.75-3.33-5.25H37.51V10C50.12,4.83,62.44-1.74,77,.42A16.85,16.85,0,0,1,80.38,1c7.9,3,15.78,6.05,23.75,9.13V37.32H76.83V50l17.33,2c.78-3.85,1.53-7.51,2.33-11.47h7.44Z"/><path d="M6.35,43.92,12.15,68l6.08,3L12.16,51.76l5.58-2.33c.49-1.8,1-3.71,1.66-6.15l12.75-2V91.16l-17,9.92c-1.34-5.82-2.51-10.9-3.67-16h.38c-.78-2.08-1.55-4.16-2.53-6.81h4.44l.22-.63L9.72,75.39c-.31-1.42-.65-3-1.06-4.91l-6.89-.35C1.18,54.93.6,39.9,0,24.51L32.1,12V38.48Z"/><path d="M139.13,70.39h-6.84c-.44,1.82-.83,3.4-1.27,5.23l-5,2,4.52.91c2.08,2.89-.35,4.45-1.29,6.39-1.06,5.11-2.12,10.21-3.4,16.35L109.27,91.16V61.33l5.54-6.79-5.38.61V41.3L122,43.19c.56,2.17,1.06,4.07,1.61,6.19l5.69,2.26-5.95,18.85,5.74-2c2-8,4-16,6.07-24.53l-25.8-5.4V12.33L141,24.49C140.36,39.65,139.76,54.71,139.13,70.39Z"/><path d="M73.57,40.26c-.08,1.16-.17,2.33-.25,3.5" fill="none" stroke="#000" stroke-linecap="round" stroke-linejoin="round" stroke-width="2"/><path d="M78.82,107.26c-.67,1.83-1.33,3.66-2,5.5" fill="none" stroke="#000" stroke-linecap="round" stroke-linejoin="round" stroke-width="2"/><path d="M3.57,44.26l.75,3.5" fill="none" stroke="#000" stroke-linecap="round" stroke-linejoin="round" stroke-width="2"/><path d="M135.32,38.76c2.38,2.23,3.19,4.87,2,8" fill="none" stroke="#000" stroke-linecap="round" stroke-linejoin="round" stroke-width="2"/></svg>