<svg xmlns="http://www.w3.org/2000/svg" viewBox="0 0 107.96 124.44"><path d="M31.92,59.64c-6.18-5.36-9.7-12.14-11.53-19.83C19.7,36.92,19.5,33.91,19,31c-.62-3.88-1.29-7.74-2-11.79C28.89,12.45,41.34,6.61,56.3,12.11,45.76,14.7,37.36,20,32.85,30.1A37.3,37.3,0,0,0,31.92,59.64Z"/><path d="M54.49,9.53C62.05,5.17,68,3.6,79.58,2.8L83.16,0c10.31,8.94,17.67,35.81,13,47.23C87.34,24.27,75.27,13.22,54.49,9.53Z"/><path d="M48.38,82.88c-.52.36-1.1,1.09-1.55,1C35.87,82,25,79.81,15.58,75.08c.86-11,1.68-21.45,2.5-32.1,1,.33,1.51.36,1.57.54,2.78,7.95,6.66,15.11,12.93,21,2.33,2.18,3.16,5.9,5.3,8.36C40.78,76.2,44.29,79,47.54,82Z"/><path d="M48.38,82.88,47.54,82,37,69.1l.88-1C45.17,75,53.6,79,63.63,78.64S82.19,74,89.28,66.4a10.34,10.34,0,0,1-1,2.75c-2.78,3.72-5.65,7.38-8.54,11-2.38,3-5.15,5.72-7.16,8.93s-3.2,6.79-4.48,9.62Z"/><path d="M108,70.79c-8.45,6.92-17.69,12.71-29.7,13.36,7.23-5.73,11.19-13.43,15.29-21.37,4.23-8.19,5.38-16.47,4.87-25.4l1.21-.2a23.07,23.07,0,0,1,1.79,4.18c1.53,7.13,2.86,14.3,4.37,21.43C106.32,65.34,107.14,67.82,108,70.79Z"/><path d="M.93,124.1c-1-7.47.5-10.54,9-19.66-.35-6.69.46-8.64,4.83-11.4v8.49c9.27-5.43,20.58-5.81,25.81-17l9.6,1.37C48.05,92,42.8,94.3,37.91,98.26l6.39,2.21c-2.53,2.33-5.43,3.11-8.62,1.9a8.13,8.13,0,0,0-6.62.4c-3.48,1.55-7.08,2.82-10.57,4.38C10.9,110.53,4.68,115.49.93,124.1Z"/><path d="M95.37,54.79c-6.8,10.14-14.85,18.67-27.86,20.92C85.05,60.8,92.34,44,77.59,22.44,86.83,27.94,92.45,38.24,95.37,54.79Z"/><path d="M78.53,52.93l-1.93.78c1.1-8.13.07-15.44-6.39-21.09C64,27.17,56.64,26.18,48.1,27.06c2.5-3.17,5.5-3.85,8.46-4.27A29.92,29.92,0,0,1,77,27.31c5.35,3.35,6.2,8.89,5.21,14.5-.68,3.84-2.49,7.49-3.8,11.22Z"/><path d="M78.44,53l4.42-5C80.55,60.1,73.32,68.57,63.41,75.48,55.8,71.8,50.1,66.65,46.73,58.75c5.51,2.89,10.87,6.18,17.4,5.06s11.35-4.94,14.4-10.88Z"/><path d="M32.33,39.65C40.17,52.42,45,66.77,58.1,75.47c-6.67.82-16.05-4.6-21.26-12.44C32.09,55.91,30,48.23,32.33,39.65Z"/><path d="M76.23,24.68c-15-6.34-28.43-4.93-40.44,6.78a8.87,8.87,0,0,1,.65-2.3c5-8.18,12.39-13.28,21.48-15.89a9.88,9.88,0,0,1,5.28.39C69,15.46,73.2,19.28,76.23,24.68Z"/><path d="M42.41,51.25c-4.95-4.61-7.23-9.12-7.79-15,6.06-6,13.38-8,23-7.25C49.86,35,43.56,40.83,42.41,51.25Z"/><path d="M44.25,54.46c.16-6.9,2.73-12.75,6.66-15.91C51.52,42.88,51,48,53.1,51.6s6.67,5.45,10.31,8.2C56.29,61.21,50.08,59,44.25,54.46Z"/><path d="M71.74,38.89c4.84,5.06,5.28,11.5,1.14,18-6.59,1.26-12.13-.83-16.85-5.81,5,1.24,9.55.37,14.27-3.34C70.71,45.24,71.23,42.06,71.74,38.89Z"/><path d="M61.64,30c6.7,3.61,9,7.2,8.48,13.75-1.48-1.21-2.64-2.3-4-3.16S63.3,39,61.23,37.87l-8.66,5.71A16,16,0,0,1,61.64,30Z"/><path d="M56,11.94l-11,1" fill="none" stroke="#000" stroke-linecap="round" stroke-linejoin="round" stroke-width="2"/><path d="M27,48.94l5,10.5" fill="none" stroke="#000" stroke-linecap="round" stroke-linejoin="round" stroke-width="2"/><path d="M19,43.44l1.5,10" fill="none" stroke="#000" stroke-linecap="round" stroke-linejoin="round" stroke-width="2"/><path d="M40,79.44a41.83,41.83,0,0,0,5.55,3.39c.71.32,2-.56,3-.89" fill="none" stroke="#000" stroke-linecap="round" stroke-linejoin="round" stroke-width="2"/><path d="M77,53.44q1.25-6,2.5-12" fill="none" stroke="#000" stroke-linecap="round" stroke-linejoin="round" stroke-width="2"/><path d="M64.5,25.69c-5.58-1.52-11-.49-16.5.75" fill="none" stroke="#000" stroke-linecap="round" stroke-linejoin="round" stroke-width="2"/><path d="M76,24.44l-9-5.5" fill="none" stroke="#000" stroke-linecap="round" stroke-linejoin="round" stroke-width="2"/><path d="M51.5,19.19C44.88,21.43,39.9,25.75,36,31.44" fill="none" stroke="#000" stroke-linecap="round" stroke-linejoin="round" stroke-width="2"/><path d="M33,39.44c-1.18,4.72,1,8.79,2.5,13" fill="none" stroke="#000" stroke-linecap="round" stroke-linejoin="round" stroke-width="2"/><path d="M45.5,67.94c3.82,3.07,7.43,6.51,12.5,7.5" fill="none" stroke="#000" stroke-linecap="round" stroke-linejoin="round" stroke-width="2"/><path d="M55,9.44l8.5-1" fill="none" stroke="#000" stroke-linecap="round" stroke-linejoin="round" stroke-width="2"/><path d="M93.75,32.94c.92,3.67,1.93,7.31,2.69,11,.22,1.09-.27,2.32-.44,3.49" fill="none" stroke="#000" stroke-linecap="round" stroke-linejoin="round" stroke-width="2"/><path d="M78,22.44c4.62,5.35,8.76,11,10.5,18" fill="none" stroke="#000" stroke-linecap="round" stroke-linejoin="round" stroke-width="2"/><path d="M78,69.44l-11,6" fill="none" stroke="#000" stroke-linecap="round" stroke-linejoin="round" stroke-width="2"/><path d="M99,37.44q1,7.25,2,14.5" fill="none" stroke="#000" stroke-linecap="round" stroke-linejoin="round" stroke-width="2"/><path d="M86.5,80.44l-8.5,4" fill="none" stroke="#000" stroke-linecap="round" stroke-linejoin="round" stroke-width="2"/><path d="M51,38.44c-.83,3-1.67,6-2.5,9" fill="none" stroke="#000" stroke-linecap="round" stroke-linejoin="round" stroke-width="2"/><path d="M53.5,56.44l10.5,3" fill="none" stroke="#000" stroke-linecap="round" stroke-linejoin="round" stroke-width="2"/><path d="M72,38.44c.18,3.67,2.57,7.23.5,11" fill="none" stroke="#000" stroke-linecap="round" stroke-linejoin="round" stroke-width="2"/><path d="M65.5,53.69,56,51.44" fill="none" stroke="#000" stroke-linecap="round" stroke-linejoin="round" stroke-width="2"/><path d="M38,68.44l10.5,10" fill="none" stroke="#000" stroke-linecap="round" stroke-linejoin="round" stroke-width="2"/><path d="M78,78.44l11-12" fill="none" stroke="#000" stroke-linecap="round" stroke-linejoin="round" stroke-width="2"/><path d="M83,48.44c-2.75,5.52-5.55,11-10.5,15" fill="none" stroke="#000" stroke-linecap="round" stroke-linejoin="round" stroke-width="2"/><path d="M54.5,65.44l-7.5-7" fill="none" stroke="#000" stroke-linecap="round" stroke-linejoin="round" stroke-width="2"/><path d="M10,108.44c-4.27,4.24-8.42,8.55-9,15" fill="none" stroke="#000" stroke-linecap="round" stroke-linejoin="round" stroke-width="2"/><path d="M57,29.44l-8,2.5" fill="none" stroke="#000" stroke-linecap="round" stroke-linejoin="round" stroke-width="2"/><path d="M40.75,44.94c.42,1.83.83,3.67,1.25,5.5" fill="none" stroke="#000" stroke-linecap="round" stroke-linejoin="round" stroke-width="2"/><path d="M53,43.44l5.5-7" fill="none" stroke="#000" stroke-linecap="round" stroke-linejoin="round" stroke-width="2"/><path d="M35,97.94l3,4.51,1-1,5-1" fill="none" stroke="#000" stroke-linecap="round" stroke-linejoin="round" stroke-width="2"/><path d="M15,93.44c-.83,1.83-1.64,3.68-2.51,5.49-.43.87-1,1.68-1.49,2.51" fill="none" stroke="#000" stroke-linecap="round" stroke-linejoin="round" stroke-width="2"/><path d="M24,22.44l-7-2.5" fill="none" stroke="#000" stroke-linecap="round" stroke-linejoin="round" stroke-width="2"/><path d="M21.5,71.94l-6.5,2" fill="none" stroke="#000" stroke-linecap="round" stroke-linejoin="round" stroke-width="2"/></svg>