<svg xmlns="http://www.w3.org/2000/svg" viewBox="0 0 115.15 100.1"><path d="M12.27,99.9,10.48,95c.28-1.33.58-2.77.91-4.32L9.48,88c.87-3.64,1.62-6.79,2.53-10.58-1.55-3.2-3.34-6.73-5-10.34-1.93-4.22-4-8.4-5.55-12.77C-4.37,37.7,7.66,20,29,22.64c5.82.71,11.43,3.2,17.45,5,1-4.25,2.1-9.09,7.68-10.68.11-1.53.21-2.76.31-4.19L48,12.37c-.08-1.84-.16-3.43-.25-5.47h6.66V.3L59.72,0l.68,6.79h6.16v5.47l-6.18.56c-.09,1-.18,2.11-.32,3.76,5.06,1.9,7.54,6,8.2,11.78,3.19-1.29,6.06-2.44,8.91-3.61a32.49,32.49,0,0,1,20.55-1.44c11.79,2.86,19.72,15.28,16.84,27.28-1.3,5.42-3.86,10.56-6.07,15.73-1.69,4-3.74,7.76-5.49,11.34,1,3.53,1.83,6.55,2.83,10.13L104,91.18c.28,1.23.57,2.52.84,3.68L102.64,100c-15-.52-30.09-1.44-45.19-1.47C42.51,98.55,27.56,99.42,12.27,99.9Zm62-20.43c1.32-1.65,2.79-2.78,3.31-4.25,2.73-7.65,5.4-15.35,7.71-23.14,1.36-4.54-.48-8.1-4.63-10.49-4.89-2.81-10.06-3.06-15.36-1.77-3.42,4.36-3.66,9.13-2.73,14.61l14.15-1V65.12L61.66,63.65c.82,5.38,1.55,10.18,2.43,16-.09.31-.45,1.7-.88,3.32H74.7C74.55,81.8,74.42,80.7,74.27,79.47ZM52.57,54.09c.68-8.5.54-9.16-3-14.34-1-.21-2.18-.5-3.33-.66-12.6-1.7-19.22,6.31-15,18.08,2.25,6.22,4.51,12.43,7,19.39L41,78.77c-.14,1.63-.24,2.84-.33,3.88h10c.57-3.63,1.13-6.58,1.49-9.57s.53-6.09.82-9.5c-3.18.37-5.47.67-7.77.9s-4.52.37-7,.57V53.17c2.67.34,4.93.74,7.21.88S50,54.09,52.57,54.09ZM83.69,33.15l2.69,1.57c8,4.58,10.5,10.57,7.68,19.25-1.17,3.6-3.17,6.92-4.68,10.41-1.63,3.77-3.12,7.6-4.68,11.4l.86.19c.5,2.46,1,4.92,1.55,7.67l6.45.43a30.55,30.55,0,0,1,.9-4.3c3.14-8.37,6.87-16.55,9.42-25.08C107.61,42.18,100.88,28.64,83.69,33.15ZM28.74,83.34c0-1.71-.5-3.4.1-4.48,1.59-2.87,1-5.51-.2-8.13C26.89,66.78,24.85,63,23.1,59c-4.84-10.92-2.5-18.7,7.44-25.24.19-.13.16-.57.28-1.09-2-.2-3.91-.52-5.86-.56-7-.12-11.41,2.94-13.24,9.73-.8,3-1.37,6.48-.57,9.33,2.55,9.07,5.77,17.95,8.77,26.9.63,1.88,1.42,3.71,2.27,5.93ZM16.57,97l82.92.13A524.09,524.09,0,0,0,16.57,97Z"/><path d="M15.4,92.33c-1.72,1.7-3.37,3.41-1.14,6.5,28.82-1.89,58-2.57,87.12.27,1.89-1-1.44-4.33,2-4.27" fill="none" stroke="#000" stroke-linecap="round" stroke-linejoin="round" stroke-width="2"/><path d="M55.4,1.83c1.26.61,2.19,1.15,2.08,3-.25,4.15-.08,8.32-.08,12.49" fill="none" stroke="#000" stroke-linecap="round" stroke-linejoin="round" stroke-width="2"/><path d="M50.15,8.33c.59.5,1.15,1.41,1.76,1.43,3.66.14,7.33.14,11,0,.6,0,1.17-.93,1.75-1.43" fill="none" stroke="#000" stroke-linecap="round" stroke-linejoin="round" stroke-width="2"/><path d="M15.9,87.33H9.4" fill="none" stroke="#000" stroke-linecap="round" stroke-linejoin="round" stroke-width="2"/><path d="M56.9,78.33l-3.5-.25" fill="none" stroke="#000" stroke-linecap="round" stroke-linejoin="round" stroke-width="2"/><path d="M40.65,56.08l2.25,2.25" fill="none" stroke="#000" stroke-linecap="round" stroke-linejoin="round" stroke-width="2"/></svg>