<svg xmlns="http://www.w3.org/2000/svg" 
    viewBox="0 0 105.78 110.88">
    <g id="Layer_2" data-name="Layer 2">
        <g id="Layer_1-2" data-name="Layer 1">
            <path d="M85.58,30,104.66,0l1.12.54c-1.07,3.9-3.79,7.1-5.52,10.73s-3.62,7.47-5.44,11.21-3.75,7.77-5.7,11.79l6.33,12.38,6.58,1,.38,1L96.67,53c.83,11.26-.89,21.82-8.31,31.46S70.67,97.81,58.63,100.39L51.9,110.88c-3.41-3.35-3.71-7.84-5.54-11.73C32.74,95.25,23,86.61,16.43,73.41L1.67,75.67c-3.67-3.31-.19-6.5.12-9.52C1.9,65,5.05,64,7,63.34a45.77,45.77,0,0,1,6.41-1.16c1-5.66,1.37-11.33,3.12-16.53S21.33,36,24.25,30.39L17,.91C21.9,3.16,22,8.16,23.91,12.07c2,4.17,3.61,8.55,5.52,13.15C49.16,13.8,68,13.57,85.58,30Zm-5.13,8.17c-8-5-14.83-10.29-24-10.54S39.9,30.91,33.12,36.43c2.89,7,5.59,13.55,8.39,20.34,5.86-1.07,11.24-1.92,16.57-3s10.54-2.49,16-3.8ZM61.73,90.26C77.77,86.49,88.41,70.6,85.31,56l-8,2.11Zm7.76-30.8-24,6.35,8.25,20.46C59.31,76.81,64.21,68.47,69.49,59.46Zm-26,29.39c-.58-2.9-.69-4.91-1.38-6.7-1.73-4.43-3.72-8.76-5.72-13.42l-9.66,2.6C29.72,79.52,35.6,84.36,43.47,88.85ZM28.39,42.59c-3.05,6.22-6,11.37-5,18.11l10.1-2.39C31.78,53,30.25,48.32,28.39,42.59Z"/>
        </g>
    </g>
</svg>